<svg width="20" height="10" viewBox="0 0 20 10" xmlns="http://www.w3.org/2000/svg"><g id="UI" stroke="none" stroke-width="1" fill="none" fill-rule="evenodd"><g id="UI-Elements" transform="translate(-363 -522)" fill="#414EB9"><g id="Group" transform="translate(135 517)"><path d="M247.924245,10.3821154 C248.025252,10.1371216 248.025252,9.86212845 247.924245,9.61713457 C247.873242,9.49513762 247.800238,9.3841404 247.708232,9.2921427 L243.707982,5.29324267 C243.317957,4.90225244 242.684918,4.90225244 242.293893,5.29324267 C241.902869,5.68323292 241.902869,6.31621709 242.293893,6.70720732 L244.587037,9.00015 L229.000063,9.00015 C228.448028,9.00015 228,9.44713882 228,10.000125 C228,10.5521112 228.448028,11.0001 229.000063,11.0001 L244.587037,11.0001 L242.293893,13.2930427 C241.902869,13.6830329 241.902869,14.3160171 242.293893,14.7070073 C242.488906,14.9020024 242.744922,15 243.000938,15 C243.256954,15 243.51297,14.9020024 243.707982,14.7070073 L247.708232,10.7071073 C247.800238,10.6151096 247.873242,10.5041124 247.924245,10.3821154" id="Arrow_right"/></g></g></g></svg>