<svg width="16" height="14" viewBox="0 0 16 14" xmlns="http://www.w3.org/2000/svg"><g id="Symbols" stroke="none" stroke-width="1" fill-rule="evenodd"><g id="320/Blocks/header" transform="translate(-275 -20)"><path d="M291,33 L291,33 C291,32.448 290.552,32 290,32 L276,32 C275.448,32 275,32.448 275,33 C275,33.552 275.448,34 276,34 L290,34 C290.552,34 291,33.552 291,33 M291,27 L291,27 C291,26.448 290.552,26 290,26 L276,26 C275.448,26 275,26.448 275,27 C275,27.552 275.448,28 276,28 L290,28 C290.552,28 291,27.552 291,27 M290,22 L276,22 C275.448,22 275,21.552 275,21 C275,20.448 275.448,20 276,20 L290,20 C290.552,20 291,20.448 291,21 C291,21.552 290.552,22 290,22" id="burger"/></g></g></svg>