<svg width="9" height="9" viewBox="0 0 9 9" xmlns="http://www.w3.org/2000/svg"><g id="Symbols" stroke="none" stroke-width="1" fill-rule="evenodd"><g id="Elements/Esc" transform="translate(-21 -21)"><path d="M29.7090613,28.3062063 L26.902359,25.4995039 L29.7090613,22.6937937 C30.0969796,22.3068677 30.0969796,21.6778647 29.7090613,21.2909387 C29.3211431,20.9030204 28.6931323,20.9030204 28.3062063,21.2909387 L25.4995039,24.0966488 L22.6937937,21.2909387 C22.3068677,20.9030204 21.6778647,20.9030204 21.2909387,21.2909387 C20.9030204,21.6778647 20.9030204,22.3068677 21.2909387,22.6937937 L24.0966488,25.4995039 L21.2909387,28.3062063 C20.9030204,28.6931323 20.9030204,29.3211431 21.2909387,29.7090613 C21.6778647,30.0969796 22.3068677,30.0969796 22.6937937,29.7090613 L25.4995039,26.902359 L28.3062063,29.7090613 C28.6931323,30.0969796 29.3211431,30.0969796 29.7090613,29.7090613 C30.0969796,29.3211431 30.0969796,28.6931323 29.7090613,28.3062063" id="esc_ico"/></g></g></svg>