<svg width="70" height="58" viewBox="0 0 70 58" xmlns="http://www.w3.org/2000/svg"><g id="7" stroke="none" stroke-width="1" fill="none" fill-rule="evenodd"><g id="Index_desktop" transform="translate(-838 -869)" fill-rule="nonzero"><g id="Group-20" transform="translate(43 566)"><g id="Personal" transform="translate(695 282)"><g id="Group-7" transform="translate(85)"><g id="nda" transform="translate(15 21)"><path d="M10,58 L65,58 C67.7614237,58 70,55.7614237 70,53 L70,6 C70,4.8954305 69.1045695,4 68,4 L33.6,4 C33.2093813,3.9970498 32.8277368,3.88255647 32.5,3.67 L27.5,0.34 C27.1717536,0.119413829 26.7854779,0.00109512031 26.39,0 L12,0 C10.8954305,0 10,0.8954305 10,2 L10,58 Z" id="Path" fill="#E2E2E2"/><path d="M0,56 C0,57.1045695 0.8954305,58 2,58 L65,58 C62.2385763,58 60,55.7614237 60,53 L60,16 C60,14.8954305 59.1045695,14 58,14 L23.6,14 C23.2093813,13.9970498 22.8277368,13.8825565 22.5,13.67 L17.5,10.34 C17.1717536,10.1194138 16.7854779,10.0010951 16.39,10 L2,10 C0.8954305,10 0,10.8954305 0,12 L0,56 Z" id="Path" fill="#F7F7F7"/><path d="M16,43 L15,43 L15,42.5 C15.0000916,41.3375784 14.4230577,40.2509561 13.46,39.6 C12.4662133,38.9319016 11.2020338,38.8115036 10.1,39.28 C8.84250979,39.8694707 8.02849992,41.1214954 8,42.51 L8,43 L7,43 C6.44771525,43 6,43.4477153 6,44 L6,52 C6,52.5522847 6.44771525,53 7,53 L16,53 C16.5522847,53 17,52.5522847 17,52 L17,44 C17,43.4477153 16.5522847,43 16,43 Z M10,42.51 C10.0382147,41.9405451 10.3517194,41.4255018 10.84,41.13 C11.32888,40.9112715 11.8960396,40.9604253 12.34,41.26 C12.7519021,41.5384143 12.9990916,42.002831 13,42.5 L13,43 L10,43 L10,42.51 Z M15,51 L8,51 L8,45 L15,45 L15,51 Z" id="Shape" fill="#53CA99"/><circle id="Oval" fill="#414EB9" cx="9" cy="22" r="3"/><rect id="Rectangle" fill="#E2E2E2" x="33" y="45" width="16" height="2" rx="1"/><rect id="Rectangle" fill="#E2E2E2" x="33" y="51" width="20" height="2" rx="1"/></g></g></g></g></g></g></svg>