<svg width="50" height="70" viewBox="0 0 50 70" xmlns="http://www.w3.org/2000/svg"><g id="7" stroke="none" stroke-width="1" fill="none" fill-rule="evenodd"><g id="Index_desktop" transform="translate(-248 -863)"><g id="Group-20" transform="translate(43 566)"><g id="docs" transform="translate(205 297)"><path d="M48,70 L2,70 C0.8954305,70 0,69.1045695 0,68 L0,2 C0,0.8954305 0.8954305,0 2,0 L43,0 L50,7 L50,68 C50,69.1045695 49.1045695,70 48,70 Z" id="Path" fill="#F7F7F7"/><path d="M11.12,30 L11.12,30 C10.4887663,29.9836267 9.98880602,29.4613468 10,28.83 L10,17.08 C9.98299844,16.507519 10.4279044,16.0270206 11,16 L16,16 C17.1159362,15.927952 18.2089053,16.339637 19,17.13 C19.7182155,17.9892022 20.0765161,19.092768 20,20.21 C20.0354203,21.094793 19.7942403,21.9686334 19.31,22.71 C18.8268831,23.3934521 18.1189936,23.8854353 17.31,24.1 L19.45,28.31 C19.6383373,28.664035 19.6286507,29.090611 19.4244371,29.435732 C19.2202235,29.780853 18.850978,29.9946723 18.45,30 L18.45,30 C18.0234672,30.0089863 17.631617,29.7660391 17.45,29.38 L14.97,24.38 L12.25,24.38 L12.25,28.87 C12.2342282,29.4874309 11.7374309,29.9842282 11.12,30 Z M15.82,22.44 C16.3067083,22.4717307 16.78684,22.3140755 17.16,22 C17.4932409,21.6565631 17.6642078,21.1873135 17.63,20.71 L17.63,19.71 C17.6665403,19.2353402 17.495022,18.7682267 17.16,18.43 C16.78534,18.1195156 16.3053659,17.965494 15.82,18 L12.25,18 L12.25,22.43 L15.82,22.44 Z" id="Shape" fill="#53CA99" fill-rule="nonzero"/><rect id="Rectangle" fill="#E2E2E2" x="25" y="16" width="14" height="2" rx="1"/><rect id="Rectangle" fill="#E2E2E2" x="25" y="22" width="7" height="2" rx="1"/><rect id="Rectangle" fill="#E2E2E2" x="10" y="34" width="16" height="2" rx="1"/><rect id="Rectangle" fill="#E2E2E2" x="34" y="40" width="5" height="2" rx="1"/><rect id="Rectangle" fill="#E2E2E2" x="30" y="34" width="9" height="2" rx="1"/><rect id="Rectangle" fill="#E2E2E2" x="10" y="46" width="12" height="2" rx="1"/><rect id="Rectangle" fill="#E2E2E2" x="26" y="46" width="13" height="2" rx="1"/><rect id="Rectangle" fill="#E2E2E2" x="10" y="40" width="20" height="2" rx="1"/><rect id="Rectangle" fill="#E2E2E2" x="25" y="28" width="14" height="2" rx="1"/><circle id="Oval" fill="#414EB9" cx="36" cy="59" r="3"/><path d="M50,7 L43,0 L43,5 C43,6.1045695 43.8954305,7 45,7 L50,7 Z" id="Path" fill="#C1C1C1"/></g></g></g></g></svg>