<svg width="36" height="73" viewBox="0 0 36 73" xmlns="http://www.w3.org/2000/svg"><g id="Symbols" stroke="none" stroke-width="1" fill="none" fill-rule="evenodd"><g id="Desktop/Blocks/footer" transform="translate(-90 -70)"><g id="footer" transform="translate(-5)"><g id="short_logo" transform="translate(95 70)"><rect id="Rectangle" fill="#30C58C" fill-rule="nonzero" x="0" y="62" width="36" height="11" rx="5.5"/><path d="M9.90511909,45.5294471 L0.00803864734,45.5294471 L0.00803864734,0.104447059 L21.5602336,0.104447059 C23.6438399,0.104447059 25.5320798,0.451530503 27.2250099,1.1457078 C28.91794,1.8398851 30.3612498,2.82690365 31.5549826,4.10679305 C32.7487153,5.38668245 33.6711314,6.91601887 34.3222583,8.6948482 C34.9733853,10.4736775 35.2989439,12.4477146 35.2989439,14.6170187 C35.2989439,17.6974305 34.6152709,20.3873272 33.2479042,22.6867895 C31.8805376,24.9862518 29.8078145,26.6565908 27.0296728,27.6978568 L35.9500676,45.5294471 L24.9460769,45.5294471 L17.0023676,28.8692751 L9.90511909,28.8692751 L9.90511909,45.5294471 Z M20.3230985,20.5391892 C21.7989863,20.5391892 22.9601453,20.1595667 23.8066104,19.4003102 C24.6530754,18.6410538 25.0763016,17.523879 25.0763016,16.0487522 L25.0763016,13.1852852 C25.0763016,11.7101584 24.6530754,10.5929836 23.8066104,9.83372714 C22.9601453,9.07447072 21.7989863,8.6948482 20.3230985,8.6948482 L9.90511909,8.6948482 L9.90511909,20.5391892 L20.3230985,20.5391892 Z" id="Runetlex" fill="#181818"/></g></g></g></g></svg>