<svg width="170" height="29" viewBox="0 0 170 29" xmlns="http://www.w3.org/2000/svg"><g id="Symbols" stroke="none" stroke-width="1" fill="none" fill-rule="evenodd"><g id="Desktop/Blocks/header" transform="translate(-136 -79)"><g id="header"><g id="logo" transform="translate(136 79)"><rect id="Rectangle" fill="#30C58C" fill-rule="nonzero" x="1" y="25" width="13" height="4" rx="2"/><path d="M4.496,17 L0.848,17 L0.848,0.248 L8.792,0.248 C9.56000384,0.248 10.2559969,0.37599872 10.88,0.632 C11.5040031,0.88800128 12.0359978,1.25199764 12.476,1.724 C12.9160022,2.19600236 13.2559988,2.75999672 13.496,3.416 C13.7360012,4.07200328 13.856,4.799996 13.856,5.6 C13.856,6.73600568 13.6040025,7.72799576 13.1,8.576 C12.5959975,9.42400424 11.8320051,10.0399981 10.808,10.424 L14.096,17 L10.04,17 L7.112,10.856 L4.496,10.856 L4.496,17 Z M8.336,7.784 C8.88000272,7.784 9.30799844,7.6440014 9.62,7.364 C9.93200156,7.0839986 10.088,6.67200272 10.088,6.128 L10.088,5.072 C10.088,4.52799728 9.93200156,4.1160014 9.62,3.836 C9.30799844,3.5559986 8.88000272,3.416 8.336,3.416 L4.496,3.416 L4.496,7.784 L8.336,7.784 Z M27.144,0.248 L27.144,10.52 C27.144,11.7040059 27.3759977,12.5879971 27.84,13.172 C28.3040023,13.7560029 29.0799946,14.048 30.168,14.048 C31.2560054,14.048 32.0319977,13.7560029 32.496,13.172 C32.9600023,12.5879971 33.192,11.7040059 33.192,10.52 L33.192,0.248 L36.744,0.248 L36.744,10.136 C36.744,11.3680062 36.6280012,12.4359955 36.396,13.34 C36.1639988,14.2440045 35.7840026,14.9879971 35.256,15.572 C34.7279974,16.1560029 34.0480042,16.5879986 33.216,16.868 C32.3839958,17.1480014 31.368006,17.288 30.168,17.288 C28.967994,17.288 27.9520042,17.1480014 27.12,16.868 C26.2879958,16.5879986 25.6080026,16.1560029 25.08,15.572 C24.5519974,14.9879971 24.1720012,14.2440045 23.94,13.34 C23.7079988,12.4359955 23.592,11.3680062 23.592,10.136 L23.592,0.248 L27.144,0.248 Z M52.456,9.08 L50.848,5.72 L50.776,5.72 L50.776,17 L47.344,17 L47.344,0.248 L51.328,0.248 L55.912,8.168 L57.52,11.528 L57.592,11.528 L57.592,0.248 L61.024,0.248 L61.024,17 L57.04,17 L52.456,9.08 Z M71.72,17 L71.72,0.248 L83.12,0.248 L83.12,3.488 L75.368,3.488 L75.368,6.92 L82.016,6.92 L82.016,10.136 L75.368,10.136 L75.368,13.76 L83.12,13.76 L83.12,17 L71.72,17 Z M100.272,3.488 L100.272,17 L96.624,17 L96.624,3.488 L92.088,3.488 L92.088,0.248 L104.808,0.248 L104.808,3.488 L100.272,3.488 Z M114.304,17 L114.304,0.248 L117.952,0.248 L117.952,13.76 L124.336,13.76 L124.336,17 L114.304,17 Z M134.024,17 L134.024,0.248 L145.424,0.248 L145.424,3.488 L137.672,3.488 L137.672,6.92 L144.32,6.92 L144.32,10.136 L137.672,10.136 L137.672,13.76 L145.424,13.76 L145.424,17 L134.024,17 Z M169.512,17 L165.288,17 L161.664,10.832 L161.592,10.832 L158.064,17 L154.128,17 L159.504,8.336 L154.392,0.248 L158.64,0.248 L161.904,5.912 L161.976,5.912 L165.288,0.248 L169.224,0.248 L164.064,8.408 L169.512,17 Z" id="Runetlex" fill="#181818"/></g></g></g></g></svg>