<svg width="70" height="52" viewBox="0 0 70 52" xmlns="http://www.w3.org/2000/svg"><g id="7" stroke="none" stroke-width="1" fill="none" fill-rule="evenodd"><g id="Index_desktop" transform="translate(-538 -874)" fill-rule="nonzero"><g id="Group-20" transform="translate(43 566)"><g id="Oferty" transform="translate(395 282)"><g id="oferta" transform="translate(100 21)"><path d="M66,57 L65.58,56.86 C65.7035399,56.9462523 65.8494167,56.9948779 66,57 L66,57 Z" id="Path" fill="#E2E2E2"/><path d="M66,5 L65.58,5.14 C63.57,6.5 62,17.56 62,31 C62,44.44 63.57,55.5 65.58,56.86 L66,57 C68.21,57 70,45.36 70,31 C70,16.64 68.21,5 66,5 Z" id="Path" fill="#E2E2E2"/><path d="M12,40 L15.4,53.69 C15.9826604,56.0289259 18.3510741,57.4526604 20.69,56.87 C23.0289259,56.2873396 24.4526604,53.9189259 23.87,51.58 L21.44,41.85 L16,40 L12,40 Z" id="Path" fill="#E2E2E2"/><path d="M62,31 C62,17.56 63.57,6.5 65.58,5.14 L16,22 C13.4558318,26.5870737 12.972619,32.0368422 14.67,37 C15.0218872,38.0380891 15.4670376,39.0421876 16,40 L21.44,41.85 L65.58,56.85 C63.57,55.5 62,44.44 62,31 Z" id="Path" fill="#F7F7F7"/><path d="M16,22 L9,22 C4.02943736,22.0000001 2.68220901e-07,26.0294374 2.68220901e-07,31 C2.68220901e-07,35.9705626 4.02943736,39.9999999 9,40 L16,40 C15.4670376,39.0421876 15.0218872,38.0380891 14.67,37 C12.972619,32.0368422 13.4558318,26.5870737 16,22 L16,22 Z" id="Path" fill="#53CA99"/><path d="M68,31 C68.0005498,27.7287781 65.3806721,25.0599724 62.11,25 C62,26.93 62,28.94 62,31 C62,33.06 62,35.07 62.11,37 C65.3806721,36.9400276 68.0005498,34.2712219 68,31 Z" id="Path" fill="#414EB9"/><rect id="Rectangle" fill="#45A378" x="5" y="32" width="7" height="2" rx="1"/><rect id="Rectangle" fill="#45A378" x="5" y="28" width="7" height="2" rx="1"/></g></g></g></g></g></svg>