<svg width="70" height="70" viewBox="0 0 70 70" xmlns="http://www.w3.org/2000/svg"><g id="7" stroke="none" stroke-width="1" fill="none" fill-rule="evenodd"><g id="Index_desktop"><g id="Group-20"><g id="Abonent"><g id="Group-8"><g id="support"><path d="M28.5,35 L15.5,35 C6.93958638,35 1.77635684e-15,41.9395864 0,50.5 L0,70 L5,66 L28.5,66 C37.0604136,66 44,59.0604136 44,50.5 L44,50.5 C44,41.9395864 37.0604136,35 28.5,35 Z" id="Path" fill="#F7F7F7"/><circle id="Oval" fill="#414EB9" cx="33" cy="51" r="3"/><circle id="Oval" fill="#414EB9" cx="23" cy="51" r="3"/><circle id="Oval" fill="#414EB9" cx="13" cy="51" r="3"/><path d="M41.5,0 L54.5,0 C63.0604136,0 70,6.93958638 70,15.5 L70,35 L65,31 L41.5,31 C32.9395864,31 26,24.0604136 26,15.5 L26,15.5 C26,6.93958638 32.9395864,1.77635684e-15 41.5,0 Z" id="Path" fill="#F7F7F7"/><rect id="Rectangle" fill="#53CA99" x="38" y="8" width="10" height="2" rx="1"/><rect id="Rectangle" fill="#53CA99" x="38" y="14" width="18" height="2" rx="1"/><rect id="Rectangle" fill="#53CA99" x="38" y="20" width="20" height="2" rx="1"/></g></g></g></g></g></g></svg>