<svg xmlns="http://www.w3.org/2000/svg" xmlns:xlink="http://www.w3.org/1999/xlink" version="1.1" x="0px" y="0px" viewBox="0 0 55 55" style="enable-background:new 0 0 55 55;" xml:space="preserve">
<g>
<g>
<path fill="#FFFFFF" d="M51.214901,46.8029709l-11.6796875-11.951416l3.1113281-3.1833496c0.3798828-0.3881836,0.3798828-1.0092773,0-1.3974609    c-2.1980324-2.249773-5.6909447-2.5637341-8.2424316-0.6687622l-5.5067139-5.6353149L44.3047447,8.2004309    c0.926506-0.9463925-0.5062943-2.3430614-1.4296875-1.3974609L27.499752,22.5364304L12.1250563,6.8029699    c-0.9187489-0.9456339-2.3579712,0.4492512-1.4296875,1.3974609L26.102047,23.9666672l-5.507019,5.6353149    c-4.1877518-3.1103878-9.8112736,0.4621029-8.241456,2.0662231l3.111084,3.1835938L3.7852128,46.8029709    c-0.9387348,0.9588852,0.5205762,2.3315735,1.4296877,1.3974609l11.6474609-11.918396    c2.550251,2.4979172,3.4931889,4.1955109,4.5087891,3.1508179c2.2360229-2.2877808,2.4396362-5.871521,0.6251831-8.4043579    l5.5033569-5.6315918l5.5031128,5.6315308c-1.8144531,2.5328979-1.6108398,6.1166382,0.6251831,8.4044189    c0.390377,0.4015579,1.0392914,0.401577,1.4296875,0l3.0797729-3.151123l11.6477661,11.9187012    C50.6941605,49.1343727,52.1534042,47.7616196,51.214901,46.8029709z M20.5732994,37.2184982l-6.031251-6.1723633    C18.4411068,28.5214252,23.0041351,33.1927795,20.5732994,37.2184982z M34.4258385,37.2184982    c-2.4496632-4.0568962,2.1649742-8.6814747,6.0322266-6.171875L34.4258385,37.2184982z"/>
</g>
</g>
</svg>