<svg xmlns="http://www.w3.org/2000/svg" xmlns:xlink="http://www.w3.org/1999/xlink" version="1.1" x="0px" y="0px" viewBox="0 0 100 100" enable-background="new 0 0 100 100" xml:space="preserve">
<path fill="#FFFFFF" d="M49.998,74.048c0.192-1.077-0.177-2.158-0.988-2.892L30.353,54.273c-0.811-0.734-1.921-0.991-2.971-0.69  c-1.052,0.302-1.858,1.111-2.158,2.166l-7.482,26.326c-0.398,1.4,0.027,2.874,1.108,3.846c0.707,0.636,1.598,0.968,2.506,0.968  c0.474,0,0.954-0.091,1.414-0.276l25.306-10.195C49.087,76.009,49.806,75.124,49.998,74.048z M21.648,83.83  c-0.397,0.158-0.688-0.045-0.793-0.141c-0.108-0.098-0.348-0.371-0.228-0.794l2.902-10.21l4.473,8.585L21.648,83.83z M30.797,80.144  l-6.074-11.659l2.558-8.999l9.358,18.305L30.797,80.144z M46.955,73.634l-7.523,3.031l-9.637-18.851L46.997,73.38  c0.017,0.016,0.063,0.057,0.047,0.142C47.029,73.604,46.977,73.625,46.955,73.634z"/>
<path fill="#FFFFFF" d="M16.571,40.854c4.676-1.878,8.484-1.906,11.32-0.082c5.505,3.542,5.992,12.961,5.997,13.056  c0.031,0.689,0.528,1.269,1.205,1.404c0.099,0.02,0.197,0.029,0.295,0.029c0.572,0,1.106-0.328,1.356-0.861  c0.18-0.383,4.35-9.476-0.755-17.866c-3.243-5.33-8.094-7.9-12.971-6.878c-4.503,0.944-7.837,4.715-8.493,9.606  c-0.071,0.529,0.145,1.056,0.566,1.383C15.513,40.974,16.078,41.053,16.571,40.854z M23.633,32.593  c3.579-0.751,7.241,1.306,9.793,5.501c1.751,2.878,2.168,5.921,2.051,8.511c-1.04-3.039-2.841-6.342-5.952-8.349  c-1.901-1.226-4.073-1.839-6.5-1.839c-1.509,0-3.118,0.237-4.82,0.712C19.238,34.791,21.201,33.103,23.633,32.593z"/>
<path fill="#FFFFFF" d="M77.633,70.081c0.277,0.432,0.754,0.69,1.262,0.69c0.033,0,0.066-0.001,0.1-0.003c0.545-0.036,1.028-0.366,1.259-0.861  c1.903-4.066,1.928-7.829,0.072-10.88c-2.351-3.862-7.589-6.146-14.75-6.431c-9.942-0.407-15.998,5.568-16.25,5.822  c-0.481,0.484-0.574,1.232-0.228,1.82c0.347,0.588,1.048,0.869,1.704,0.68C51.525,60.712,68.625,56.028,77.633,70.081z   M58.029,57.085c-0.349,0-0.691,0.005-1.025,0.015c2.245-0.924,5.106-1.637,8.453-1.506c6.125,0.243,10.496,2.017,12.307,4.993  c1.081,1.777,1.087,3.741,0.677,5.495C72.435,58.691,64.122,57.085,58.029,57.085z"/>
<path fill="#FFFFFF" d="M43.458,55.266c0.272,0.211,0.596,0.314,0.919,0.314c0.39,0,0.778-0.151,1.07-0.448l19.259-19.574  c0.396-0.403,0.532-0.993,0.353-1.529l-2.672-7.976c-0.186-0.555-0.677-0.951-1.259-1.015c-0.576-0.063-1.146,0.216-1.449,0.717  l-16.587,27.55C42.7,53.958,42.857,54.8,43.458,55.266z M60.574,30.087l1.348,4.023l-9.714,9.874L60.574,30.087z"/>
<path fill="#FFFFFF" d="M42.238,58.052c0-1.089-0.885-1.975-1.973-1.975s-1.973,0.886-1.973,1.975c0,1.088,0.885,1.974,1.973,1.974  S42.238,59.14,42.238,58.052z"/>
<path fill="#FFFFFF" d="M49.508,63.265c0-1.014-0.825-1.839-1.838-1.839c-1.013,0-1.838,0.825-1.838,1.839c0,1.015,0.825,1.84,1.838,1.84  C48.684,65.104,49.508,64.279,49.508,63.265z"/>
<path fill="#FFFFFF" d="M62.96,46.917c0-1.291-1.048-2.341-2.337-2.341s-2.337,1.05-2.337,2.341s1.048,2.341,2.337,2.341S62.96,48.207,62.96,46.917  z"/>
<path fill="#FFFFFF" d="M36.347,31.359l2.987-0.725c1.22-0.294,2.482,0.227,3.142,1.304l1.609,2.629c0.277,0.452,0.766,0.717,1.279,0.717  c0.116,0,0.234-0.014,0.351-0.042c0.632-0.152,1.094-0.695,1.145-1.343l0.237-3.077c0.097-1.261,0.984-2.308,2.207-2.604  l2.988-0.724c0.631-0.153,1.092-0.695,1.142-1.342c0.05-0.647-0.322-1.253-0.921-1.502l-2.842-1.177  c-1.163-0.482-1.88-1.654-1.783-2.917l0.237-3.077c0.05-0.648-0.324-1.255-0.925-1.502c-0.603-0.248-1.294-0.079-1.714,0.417  l-1.994,2.35c-0.814,0.96-2.143,1.281-3.302,0.802l-2.841-1.177c-0.6-0.248-1.293-0.083-1.714,0.411  c-0.422,0.494-0.479,1.204-0.139,1.758l1.609,2.629c0.661,1.08,0.555,2.452-0.263,3.417l-1.993,2.349  c-0.42,0.495-0.474,1.205-0.133,1.758C35.058,31.242,35.715,31.514,36.347,31.359z M40.177,22.659  c1.675,0.327,3.406-0.092,4.747-1.148c0.208,1.702,1.144,3.227,2.565,4.18c-1.549,0.723-2.707,2.084-3.174,3.732  c-1.113-1.196-2.668-1.871-4.292-1.871c-0.074,0-0.149,0.001-0.223,0.004C40.63,26.057,40.768,24.269,40.177,22.659z"/>
<path fill="#FFFFFF" d="M67.657,29.176c0.593,0.509,0.791,1.338,0.491,2.063l-0.881,2.133c-0.248,0.601-0.082,1.293,0.413,1.714  c0.494,0.421,1.204,0.476,1.758,0.136l1.962-1.206c0.662-0.406,1.501-0.339,2.091,0.167l1.748,1.5  c0.279,0.239,0.627,0.362,0.978,0.362c0.269,0,0.54-0.072,0.781-0.22c0.555-0.338,0.829-0.996,0.678-1.628l-0.536-2.245  c-0.182-0.763,0.143-1.55,0.808-1.959l1.961-1.206c0.553-0.34,0.825-0.997,0.673-1.628s-0.692-1.093-1.34-1.145l-2.292-0.182  c-0.774-0.062-1.417-0.615-1.598-1.375l-0.536-2.246c-0.151-0.633-0.692-1.096-1.341-1.147c-0.656-0.059-1.256,0.322-1.504,0.922  l-0.881,2.133c-0.298,0.721-1.017,1.155-1.792,1.104l-2.293-0.182c-0.655-0.061-1.254,0.319-1.503,0.919  c-0.25,0.6-0.085,1.292,0.408,1.715L67.657,29.176z M73.037,26.598c0.517,0.824,1.272,1.471,2.165,1.854  c-0.625,0.748-1.007,1.67-1.094,2.642c-0.567-0.228-1.17-0.343-1.775-0.343c-0.354,0-0.708,0.039-1.057,0.119  c0.066-0.974-0.166-1.945-0.666-2.783C71.551,27.849,72.398,27.33,73.037,26.598z"/>
<path fill="#FFFFFF" d="M78.805,44.223c-0.569-0.314-1.276-0.225-1.75,0.22c-0.474,0.444-0.608,1.144-0.332,1.732l0.839,1.786  c0.245,0.521,0.128,1.137-0.29,1.532l-1.432,1.353c-0.472,0.446-0.604,1.145-0.326,1.732s0.899,0.927,1.546,0.846l1.95-0.25  c0.559-0.073,1.106,0.228,1.35,0.746l0.839,1.786c0.249,0.531,0.781,0.862,1.357,0.862c0.063,0,0.126-0.004,0.189-0.012  c0.645-0.082,1.164-0.57,1.285-1.209l0.366-1.939c0.107-0.565,0.559-0.993,1.124-1.065l1.951-0.25  c0.644-0.082,1.162-0.569,1.283-1.207c0.121-0.638-0.181-1.281-0.75-1.595l-1.724-0.95c-0.502-0.276-0.767-0.842-0.66-1.408  l0.367-1.939c0.121-0.639-0.183-1.283-0.754-1.595c-0.57-0.311-1.276-0.22-1.75,0.225l-1.433,1.353  c-0.414,0.39-1.028,0.469-1.525,0.195L78.805,44.223z M82.687,48.055c0.138,0.674,0.436,1.305,0.867,1.84  c-0.595,0.339-1.101,0.816-1.476,1.39c-0.505-0.461-1.113-0.795-1.772-0.974c0.284-0.627,0.414-1.313,0.379-2.001  C81.361,48.387,82.049,48.298,82.687,48.055z"/>
</svg>